<svg width="60" height="60" viewBox="0 0 60 60" fill="none" xmlns="http://www.w3.org/2000/svg">
<rect y="0.00012207" width="60" height="60" rx="18" fill="url(#paint0_linear_2000_129)" fill-opacity="0.1"/>
<path fill-rule="evenodd" clip-rule="evenodd" d="M21.0863 16.3511C21.0863 15.719 21.3406 15.1433 21.7506 14.7254C22.1613 14.3061 22.7285 14.0461 23.3524 14.0461H36.6535C37.2774 14.0461 37.8442 14.3065 38.2553 14.7254C38.6649 15.1433 38.9192 15.719 38.9192 16.3511V29.7408H39.7363C39.8471 29.7408 39.9492 29.7808 40.0285 29.8469C40.0399 29.8554 40.0506 29.8647 40.061 29.8751C40.1438 29.9579 40.1956 30.0729 40.1956 30.1997V31.879C40.2874 31.9079 40.3796 31.9401 40.4717 31.9751C40.5681 32.0115 40.6613 32.0497 40.751 32.0894L41.9242 30.9161C42.0138 30.8265 42.1313 30.7819 42.2488 30.7819C42.3524 30.7819 42.4567 30.8172 42.5413 30.8879C42.5524 30.8965 42.5631 30.9058 42.5735 30.9161L44.1899 32.5326L44.1892 32.5333L44.1899 32.534C44.2796 32.6236 44.3242 32.7408 44.3242 32.8572C44.3242 32.9747 44.2796 33.0922 44.1899 33.1819L43.1224 34.2494C43.1788 34.3526 43.2328 34.4597 43.2831 34.5704C43.3349 34.6844 43.3817 34.7979 43.4231 34.9104H44.906C45.0324 34.9104 45.1474 34.9619 45.2306 35.0451C45.3138 35.1283 45.3653 35.2429 45.3653 35.3697V37.6554C45.3653 37.7819 45.3138 37.8969 45.2306 37.9801C45.1478 38.0633 45.0328 38.1147 44.906 38.1147H43.4231C43.3817 38.2272 43.3349 38.3408 43.2831 38.4551C43.2328 38.5658 43.1792 38.6729 43.1224 38.7761L44.1899 39.8436C44.2796 39.9333 44.3242 40.0508 44.3242 40.1683C44.3242 40.2858 44.2796 40.4033 44.1899 40.4929L42.5735 42.1094L42.5728 42.1072L42.5721 42.1079C42.4824 42.1976 42.3653 42.2422 42.2488 42.2422C42.1313 42.2422 42.0138 42.1976 41.9242 42.1079L40.7506 40.9347C40.661 40.9744 40.5678 41.0126 40.4713 41.049C40.3792 41.0836 40.2871 41.1158 40.1953 41.1447V42.824C40.1953 42.9508 40.1438 43.0654 40.0606 43.1486C39.9774 43.2319 39.8628 43.2833 39.736 43.2833H38.9188V43.649C38.9188 44.2811 38.6646 44.8565 38.2549 45.2747C37.8438 45.694 37.2771 45.954 36.6531 45.954H23.3524C22.7285 45.954 22.1617 45.6936 21.7506 45.2747C21.341 44.8569 21.0863 44.2811 21.0863 43.649V30.2594H20.2692C20.1424 30.2594 20.0278 30.2079 19.9446 30.1247C19.8613 30.0415 19.8099 29.9269 19.8099 29.8001V28.1208C19.7181 28.0919 19.6263 28.0597 19.5338 28.0251C19.4374 27.9886 19.3442 27.9504 19.2546 27.9108L18.0813 29.084C17.9917 29.1736 17.8742 29.2183 17.7567 29.2183C17.6403 29.2183 17.5231 29.1733 17.4335 29.084L17.4328 29.0833L17.4321 29.084L15.816 27.4679C15.7263 27.3783 15.6817 27.2608 15.6817 27.1433C15.6817 27.0258 15.7263 26.9083 15.816 26.8186L16.8835 25.7511C16.8271 25.6479 16.7735 25.5408 16.7228 25.4301C16.671 25.3158 16.6238 25.2022 16.5828 25.0901H15.0999C14.9731 25.0901 14.8585 25.0386 14.7753 24.9554C14.6924 24.8722 14.6406 24.7576 14.6406 24.6308V22.3451C14.6406 22.2186 14.6921 22.1036 14.7753 22.0204C14.8585 21.9372 14.9731 21.8858 15.0999 21.8858H16.5831C16.6246 21.7733 16.6713 21.6597 16.7231 21.5458C16.7735 21.4351 16.8271 21.3279 16.8838 21.2247L15.816 20.1572C15.7263 20.0676 15.6817 19.9501 15.6817 19.8326C15.6817 19.7158 15.7263 19.599 15.816 19.5094L15.8167 19.5086L15.816 19.5079L17.4324 17.8919C17.4428 17.8815 17.4535 17.8722 17.4646 17.8636C17.5496 17.7929 17.6535 17.7572 17.7571 17.7572C17.8746 17.7572 17.9921 17.8022 18.0817 17.8919L19.2549 19.0651C19.3446 19.0254 19.4374 18.9872 19.5338 18.9508C19.6263 18.9158 19.7185 18.884 19.8103 18.8547V17.1754C19.8103 17.0486 19.8617 16.934 19.9449 16.8508C19.9553 16.8404 19.966 16.8311 19.9774 16.8226C20.0567 16.7565 20.1588 16.7165 20.2696 16.7165H21.0867L21.0863 16.3511ZM24.3038 36.7608H28.7496C28.9292 36.7608 29.0753 36.6151 29.0753 36.4351C29.0753 36.2551 28.9296 36.1094 28.7496 36.1094H24.3038C24.1242 36.1094 23.9781 36.2551 23.9781 36.4351C23.9781 36.6151 24.1242 36.7608 24.3038 36.7608ZM24.3038 33.8479H31.3546C31.5342 33.8479 31.6803 33.7022 31.6803 33.5222C31.6803 33.3426 31.5346 33.1965 31.3546 33.1965H24.3038C24.1242 33.1965 23.9781 33.3422 23.9781 33.5222C23.9781 33.7022 24.1242 33.8479 24.3038 33.8479ZM24.3038 30.9347H33.9592C34.1388 30.9347 34.2849 30.789 34.2849 30.609C34.2849 30.4294 34.1392 30.2833 33.9592 30.2833H24.3038C24.1242 30.2833 23.9781 30.429 23.9781 30.609C23.9781 30.789 24.1242 30.9347 24.3038 30.9347ZM26.7317 21.9511L24.1092 23.9211C23.966 24.0286 23.9367 24.2319 24.0442 24.3751C24.0646 24.4022 24.0881 24.4251 24.1142 24.444L26.7313 26.4101C26.8746 26.5176 27.0781 26.4883 27.1853 26.3451C27.2928 26.2019 27.2638 25.9986 27.1203 25.8911L24.8431 24.1804L27.1203 22.4697C27.2635 22.3622 27.2928 22.159 27.1853 22.0158C27.0785 21.8729 26.8749 21.8436 26.7317 21.9511ZM32.8571 22.4701L35.1342 24.1808L32.8571 25.8915C32.7138 25.999 32.6846 26.2022 32.7924 26.3454C32.8999 26.4886 33.1031 26.5176 33.2463 26.4104L35.8635 24.4444C35.8896 24.4254 35.9135 24.4026 35.9338 24.3754C36.0413 24.2322 36.0121 24.0286 35.8688 23.9215L33.2463 21.9515C33.1031 21.844 32.8996 21.8733 32.7924 22.0165C32.6849 22.1594 32.7138 22.3626 32.8571 22.4701ZM31.3042 21.254L28.1113 26.784C28.0221 26.9394 28.0756 27.1376 28.231 27.2265C28.3863 27.3158 28.5846 27.2622 28.6735 27.1069L31.8663 21.5769C31.9556 21.4215 31.9021 21.2236 31.7467 21.1344C31.5917 21.0454 31.3935 21.099 31.3042 21.254ZM38.9192 38.5436C39.3571 38.474 39.7488 38.2665 40.0485 37.9665C40.4206 37.594 40.651 37.0797 40.651 36.5115C40.651 35.9433 40.4206 35.429 40.0485 35.0565C39.7488 34.7569 39.3571 34.5494 38.9192 34.4797V38.5436ZM38.9192 33.8226C39.5371 33.8965 40.091 34.1786 40.5088 34.5965C40.9992 35.0869 41.3024 35.764 41.3024 36.5119C41.3024 37.2597 40.9992 37.9369 40.5088 38.4272C40.091 38.8451 39.5371 39.1272 38.9192 39.2011V42.6319H39.5442V41.0022C39.5442 40.8997 39.5778 40.804 39.6371 40.7254C39.6953 40.6483 39.7785 40.5897 39.8778 40.5611C40.0053 40.5251 40.1271 40.4844 40.2424 40.4408C40.3581 40.3972 40.4756 40.3469 40.5946 40.2901C40.6824 40.2483 40.7778 40.2361 40.8692 40.2519C40.9606 40.2676 41.046 40.3108 41.1153 40.3797L41.116 40.3804L41.1167 40.3797L42.2488 41.5119L43.5935 40.1672L42.5585 39.1326C42.4853 39.059 42.441 38.9651 42.4285 38.8654C42.416 38.7665 42.4353 38.6644 42.4885 38.5747C42.5649 38.4454 42.6331 38.3151 42.6924 38.1847C42.7499 38.0583 42.8031 37.9226 42.8506 37.7783C42.8813 37.6847 42.941 37.6061 43.0185 37.5501C43.0956 37.4944 43.1881 37.4629 43.2863 37.4629H44.7131V35.5615H43.286C43.1878 35.5615 43.0953 35.5301 43.0181 35.4744C42.9406 35.4183 42.8813 35.3397 42.8503 35.2461C42.8024 35.1022 42.7496 34.9665 42.6921 34.8401C42.6328 34.7097 42.5646 34.5794 42.4878 34.4501C42.4346 34.3604 42.4153 34.2583 42.4278 34.1594C42.4403 34.0611 42.4842 33.9672 42.5585 33.8929L42.5578 33.8922L43.5928 32.8572L42.2481 31.5126L41.1163 32.6444C41.0478 32.7133 40.9613 32.7565 40.8692 32.7722C40.7778 32.7879 40.6824 32.7758 40.5946 32.734C40.4756 32.6772 40.3581 32.6269 40.2424 32.5833C40.1267 32.5397 40.0049 32.4994 39.8774 32.4633C39.8681 32.4608 39.8592 32.4576 39.8503 32.4544C39.7628 32.4236 39.6896 32.369 39.6367 32.2986C39.5774 32.2204 39.5438 32.1247 39.5438 32.0222V30.3926H38.9188V33.8226H38.9192ZM21.0863 26.1776C20.4685 26.1036 19.9146 25.8215 19.4967 25.4036C19.0063 24.9136 18.7031 24.2361 18.7031 23.4883C18.7031 22.7404 19.0063 22.0633 19.4967 21.5729C19.9146 21.1551 20.4685 20.8729 21.0863 20.799V17.3683H20.4613V18.9979C20.4613 19.1004 20.4274 19.1961 20.3685 19.2744C20.3156 19.3444 20.2421 19.399 20.1549 19.4301C20.146 19.4333 20.1371 19.4365 20.1278 19.439C20.0003 19.4754 19.8785 19.5154 19.7628 19.559C19.6471 19.6026 19.5296 19.6529 19.4106 19.7097C19.3228 19.7515 19.2274 19.7636 19.136 19.7479C19.0435 19.7322 18.9574 19.689 18.8888 19.6201L17.7567 18.4883L16.4121 19.8329L17.4471 20.8679L17.4463 20.8686C17.5203 20.9429 17.5646 21.0365 17.5771 21.1351C17.5896 21.234 17.5703 21.3361 17.5174 21.4258C17.441 21.5551 17.3728 21.6854 17.3131 21.8158C17.2556 21.9422 17.2028 22.0779 17.1549 22.2219C17.1238 22.3154 17.0646 22.394 16.9871 22.4501C16.9099 22.5058 16.8171 22.5372 16.7192 22.5372H15.2921V24.4386H16.7192C16.8174 24.4386 16.9099 24.4701 16.9871 24.5258C17.0646 24.5819 17.1242 24.6604 17.1549 24.754C17.2028 24.8983 17.2556 25.0336 17.3131 25.1604C17.3724 25.2908 17.441 25.4211 17.5171 25.5504C17.5703 25.6401 17.5896 25.7422 17.5771 25.8411C17.5646 25.9408 17.5203 26.0347 17.4471 26.1083L16.4121 27.1429L17.7567 28.4876L18.8888 27.3558L18.8896 27.3565L18.8903 27.3558C18.9592 27.2869 19.0449 27.2436 19.1363 27.2279C19.2278 27.2122 19.3231 27.2244 19.411 27.2661C19.5299 27.3229 19.6474 27.3733 19.7631 27.4169C19.8785 27.4604 20.0003 27.5004 20.1278 27.5369C20.2271 27.5654 20.3103 27.624 20.3685 27.7015C20.4278 27.7797 20.4613 27.8758 20.4613 27.9779V29.6076H21.0863V26.1776ZM21.0863 21.4561C20.6485 21.5258 20.2567 21.7333 19.9571 22.0329C19.5846 22.4054 19.3546 22.9197 19.3546 23.4879C19.3546 24.0561 19.5849 24.5704 19.9571 24.9429C20.2567 25.2426 20.6485 25.4504 21.0863 25.5201V21.4561ZM28.2524 41.0344C27.9078 41.0344 27.5949 41.1751 27.3681 41.4019C27.1413 41.6286 27.0006 41.9415 27.0006 42.2861C27.0006 42.6308 27.1413 42.9436 27.3681 43.1704C27.5949 43.3972 27.9078 43.5379 28.2524 43.5379H31.7535C32.0981 43.5379 32.411 43.3972 32.6378 43.1704C32.8646 42.9436 33.0053 42.6308 33.0053 42.2861C33.0053 41.9415 32.8646 41.6286 32.6378 41.4019C32.411 41.1751 32.0981 41.0344 31.7535 41.0344H28.2524ZM31.7531 41.6854H28.2521C28.0871 41.6854 27.9371 41.7529 27.8281 41.8622C27.7192 41.9711 27.6513 42.1211 27.6513 42.2861C27.6513 42.4508 27.7192 42.6011 27.8281 42.7101C27.9371 42.819 28.0871 42.8869 28.2521 42.8869H31.7531C31.9181 42.8869 32.0681 42.819 32.1771 42.7101C32.286 42.6011 32.3538 42.4511 32.3538 42.2861C32.3538 42.1215 32.286 41.9711 32.1771 41.8622C32.0681 41.7533 31.9181 41.6854 31.7531 41.6854ZM34.7317 14.6976L34.6135 15.4719C34.5549 15.854 34.386 16.1844 34.1478 16.4215C33.8974 16.6704 33.5735 16.8169 33.2188 16.8169H26.7592C26.3996 16.8169 26.0717 16.6661 25.8199 16.4108C25.5817 16.169 25.4142 15.8315 25.361 15.4426L25.2592 14.6976H23.3521C22.9088 14.6976 22.5056 14.8826 22.2131 15.1811C21.9196 15.4808 21.7371 15.8947 21.7371 16.3515V17.0429V21.1054V25.8715V29.934V43.649C21.7371 44.1058 21.9196 44.5197 22.2131 44.8194C22.5056 45.1176 22.9088 45.3029 23.3521 45.3029H36.6531C37.0963 45.3029 37.4996 45.1176 37.7921 44.8194C38.0856 44.5197 38.2678 44.1058 38.2678 43.649V42.9576V38.8951V34.1286V30.0665V16.3511C38.2678 15.8947 38.0856 15.4804 37.7921 15.1808C37.4996 14.8826 37.0963 14.6972 36.6531 14.6972L34.7317 14.6976ZM25.9149 14.6976L26.0046 15.3561C26.0381 15.6015 26.1396 15.8101 26.2828 15.9554C26.4128 16.0876 26.5796 16.1654 26.7592 16.1654H33.2185C33.3956 16.1654 33.5603 16.0897 33.6896 15.9611C33.831 15.8204 33.9328 15.6169 33.9696 15.3751L34.0731 14.6972L25.9149 14.6976Z" fill="#27EB8C"/>
<defs>
<linearGradient id="paint0_linear_2000_129" x1="-5.50446e-07" y1="0.853608" x2="70.5764" y2="19.8477" gradientUnits="userSpaceOnUse">
<stop stop-color="#27EB8C"/>
<stop offset="1" stop-color="#014826"/>
</linearGradient>
</defs>
</svg>
